<svg width="80" height="16" viewBox="0 0 80 16" fill="none" xmlns="http://www.w3.org/2000/svg">
<path d="M6.38 14.42C6.38 14.5933 5.96667 14.7333 5.14 14.84C4.32667 14.9467 3.51333 15 2.7 15C1.88667 15 1.36667 14.9533 1.14 14.86C0.913333 14.7667 0.8 14.62 0.8 14.42V2.14C0.8 1.80667 1.18 1.5 1.94 1.22C2.71333 0.939999 3.58667 0.799999 4.56 0.799999C4.90667 0.799999 5.16667 0.813333 5.34 0.84C5.79333 0.906667 6.11333 1.19333 6.3 1.7L8.22 6.86H8.3V2.14C8.3 1.80667 8.68 1.5 9.44 1.22C10.2 0.939999 11.0667 0.799999 12.04 0.799999C12.88 0.799999 13.4133 0.959999 13.64 1.28C13.8 1.50667 13.88 1.71333 13.88 1.9V14.42C13.88 14.5933 13.4667 14.7333 12.64 14.84C11.8267 14.9467 10.9267 15 9.94 15C8.96667 15 8.43333 14.8733 8.34 14.62L6.48 9.7H6.38V14.42ZM22.2475 15.18C21.1408 15.18 20.1875 15.08 19.3875 14.88C18.6008 14.6667 17.8742 14.2933 17.2075 13.76C15.8608 12.7067 15.1875 10.6867 15.1875 7.7C15.1875 6.44667 15.3675 5.35333 15.7275 4.42C16.1008 3.48667 16.6142 2.74667 17.2675 2.2C18.5475 1.13333 20.2075 0.599999 22.2475 0.599999C23.3008 0.599999 24.2142 0.693333 24.9875 0.879999C25.7742 1.06667 26.5142 1.40667 27.2075 1.9C28.6075 2.91333 29.3075 4.84667 29.3075 7.7C29.3075 10.26 28.6742 12.1467 27.4075 13.36C26.1408 14.5733 24.4208 15.18 22.2475 15.18ZM21.5875 11.76C21.7475 11.9467 21.9675 12.04 22.2475 12.04C22.5275 12.04 22.7475 11.9467 22.9075 11.76C23.0675 11.56 23.2008 11.1467 23.3075 10.52C23.4142 9.88 23.4675 8.99333 23.4675 7.86C23.4675 6.72667 23.4142 5.85333 23.3075 5.24C23.2008 4.62667 23.0675 4.22667 22.9075 4.04C22.7475 3.85333 22.5275 3.76 22.2475 3.76C21.9675 3.76 21.7475 3.85333 21.5875 4.04C21.4275 4.22667 21.2942 4.62667 21.1875 5.24C21.0808 5.85333 21.0275 6.72667 21.0275 7.86C21.0275 8.99333 21.0808 9.88 21.1875 10.52C21.2942 11.1467 21.4275 11.56 21.5875 11.76ZM39.1047 14.52C39.1047 14.6667 38.6914 14.7867 37.8647 14.88C37.0514 14.96 36.2314 15 35.4047 15C34.5914 15 34.0714 14.9667 33.8447 14.9C33.6314 14.82 33.5247 14.6933 33.5247 14.52V5.92H30.7447C30.598 5.92 30.4714 5.73333 30.3647 5.36C30.258 4.98667 30.2047 4.43333 30.2047 3.7C30.2047 2.95333 30.2847 2.28667 30.4447 1.7C30.6047 1.1 30.818 0.799999 31.0847 0.799999H41.9047C42.1047 0.799999 42.238 0.986666 42.3047 1.36C42.3847 1.73333 42.4247 2.27333 42.4247 2.98C42.4247 3.68667 42.3514 4.35333 42.2047 4.98C42.058 5.60667 41.858 5.92 41.6047 5.92H39.1047V14.52ZM53.772 15H45.292C44.6387 15 44.1987 14.9533 43.972 14.86C43.7454 14.7667 43.632 14.62 43.632 14.42V1.76C43.632 1.41333 43.7854 1.16667 44.092 1.02C44.412 0.873332 44.9787 0.799999 45.792 0.799999H53.832C54.112 0.799999 54.252 1.26667 54.252 2.2C54.252 3.12 54.192 3.82667 54.072 4.32C53.952 4.8 53.792 5.04 53.592 5.04C52.7254 5.04 51.2654 4.95333 49.212 4.78V6.12C51.1854 6.04 52.472 6 53.072 6C53.432 6 53.612 6.42 53.612 7.26C53.612 8.1 53.5387 8.74 53.392 9.18C53.2587 9.60667 53.072 9.82 52.832 9.82L49.212 9.74V11.02C51.532 10.8467 53.132 10.76 54.012 10.76C54.292 10.76 54.432 11.2267 54.432 12.16C54.432 13.0933 54.372 13.8 54.252 14.28C54.132 14.76 53.972 15 53.772 15ZM57.5191 15C56.8524 15 56.4057 14.9667 56.1791 14.9C55.9524 14.82 55.8391 14.6933 55.8391 14.52V2.08C55.8391 1.78667 56.2257 1.5 56.9991 1.22C57.7724 0.926666 58.6391 0.779999 59.5991 0.779999C60.4524 0.779999 61.0124 0.96 61.2791 1.32C61.3724 1.45333 61.4191 1.58667 61.4191 1.72V10.58C63.0457 10.4733 64.2724 10.42 65.0991 10.42C65.3791 10.42 65.5191 10.8667 65.5191 11.76C65.5191 12.64 65.4591 13.4 65.3391 14.04C65.2191 14.68 65.0591 15 64.8591 15H57.5191ZM75.658 14.42C75.658 14.5933 75.2513 14.7333 74.438 14.84C73.6246 14.9467 72.8113 15 71.998 15C71.198 15 70.678 14.96 70.438 14.88C70.198 14.7867 70.078 14.6333 70.078 14.42V10.94C67.438 5.54 66.118 2.60667 66.118 2.14C66.118 1.86 66.5646 1.56667 67.458 1.26C68.3513 0.953333 69.2913 0.799999 70.278 0.799999C71.5446 0.799999 72.218 1.17333 72.298 1.92L72.838 7.3H73.058L73.438 2.06C73.4646 1.68667 73.938 1.38667 74.858 1.16C75.778 0.919999 76.6513 0.799999 77.478 0.799999C78.3046 0.799999 78.878 0.919999 79.198 1.16C79.518 1.4 79.678 1.65333 79.678 1.92C79.678 2.17333 78.338 5.18 75.658 10.94V14.42Z" fill="#403B36"/>
</svg>
