<svg width="20" height="20" viewBox="0 0 20 20" fill="none" xmlns="http://www.w3.org/2000/svg">
<g clip-path="url(#clip0_3_754)">
<path fill-rule="evenodd" clip-rule="evenodd" d="M15.7142 17.9058C15.7187 17.356 15.5145 16.8251 15.1428 16.4201L9.06853 10.0001L15.1428 3.58005C15.515 3.17619 15.7216 2.6471 15.7216 2.09791C15.7216 1.54872 15.515 1.01963 15.1428 0.615767C14.9648 0.421553 14.7484 0.266476 14.5072 0.160386C14.2661 0.0542964 14.0055 -0.000488281 13.7421 -0.000488281C13.4787 -0.000488281 13.2181 0.0542964 12.977 0.160386C12.7358 0.266476 12.5194 0.421553 12.3414 0.615767L4.8671 8.51862C4.49337 8.92085 4.28564 9.44957 4.28564 9.99862C4.28564 10.5477 4.49337 11.0764 4.8671 11.4786L12.3342 19.3843C12.5122 19.5786 12.7287 19.7336 12.9698 19.8397C13.2109 19.9458 13.4715 20.0006 13.735 20.0006C13.9984 20.0006 14.259 19.9458 14.5001 19.8397C14.7412 19.7336 14.9577 19.5786 15.1357 19.3843C15.5069 18.9819 15.7112 18.4533 15.7071 17.9058" fill="#403B36"/>
</g>
<defs>
<clipPath id="clip0_3_754">
<rect width="20" height="20" fill="white"/>
</clipPath>
</defs>
</svg>
