<svg width="20" height="20" viewBox="0 0 20 20" fill="none" xmlns="http://www.w3.org/2000/svg">
<path fill-rule="evenodd" clip-rule="evenodd" d="M7.5 17.5C7.5 17.9945 7.64662 18.4778 7.92133 18.8889C8.19603 19.3 8.58648 19.6205 9.04329 19.8097C9.50011 19.9989 10.0028 20.0484 10.4877 19.952C10.9727 19.8555 11.4181 19.6174 11.7678 19.2678C12.1174 18.9181 12.3555 18.4727 12.452 17.9877C12.5484 17.5028 12.4989 17.0001 12.3097 16.5433C12.1205 16.0865 11.8 15.696 11.3889 15.4213C10.9778 15.1466 10.4945 15 10 15C9.67164 14.9998 9.34647 15.0643 9.04307 15.1899C8.73967 15.3155 8.464 15.4996 8.23181 15.7318C7.99963 15.964 7.81549 16.2397 7.68992 16.5431C7.56435 16.8465 7.49981 17.1716 7.5 17.5ZM7.5 10C7.5 10.4945 7.64662 10.9778 7.92133 11.3889C8.19603 11.8 8.58648 12.1205 9.04329 12.3097C9.50011 12.4989 10.0028 12.5484 10.4877 12.452C10.9727 12.3555 11.4181 12.1174 11.7678 11.7678C12.1174 11.4181 12.3555 10.9727 12.452 10.4877C12.5484 10.0028 12.4989 9.50011 12.3097 9.04329C12.1205 8.58648 11.8 8.19603 11.3889 7.92133C10.9778 7.64662 10.4945 7.5 10 7.5C9.67164 7.49981 9.34647 7.56435 9.04307 7.68992C8.73967 7.81549 8.464 7.99963 8.23181 8.23181C7.99963 8.464 7.81549 8.73967 7.68992 9.04307C7.56435 9.34647 7.49981 9.67164 7.5 10ZM7.5 2.5C7.5 2.99445 7.64662 3.4778 7.92133 3.88893C8.19603 4.30005 8.58648 4.62048 9.04329 4.8097C9.50011 4.99892 10.0028 5.04843 10.4877 4.95196C10.9727 4.8555 11.4181 4.6174 11.7678 4.26777C12.1174 3.91814 12.3555 3.47268 12.452 2.98773C12.5484 2.50277 12.4989 2.00011 12.3097 1.54329C12.1205 1.08648 11.8 0.69603 11.3889 0.421326C10.9778 0.146623 10.4945 4.08668e-07 10 4.08668e-07C9.67164 -0.000187385 9.34647 0.0643488 9.04307 0.189919C8.73967 0.315489 8.464 0.499631 8.23181 0.731815C7.99963 0.963998 7.81549 1.23967 7.68992 1.54307C7.56435 1.84647 7.49981 2.17164 7.5 2.5Z" fill="#403B36"/>
</svg>
